<svg width="32" height="32" viewBox="0 0 32 32" fill="none" xmlns="http://www.w3.org/2000/svg">
  <circle cx="16" cy="16" r="15" stroke="#000000" stroke-width="2"/>
  <path d="M16 2a14 14 0 0 0-14 14 14 14 0 0 0 14 14 14 14 0 0 0 14-14 14 14 0 0 0-14-14zm0 28a12 12 0 0 1-12-12 12 12 0 0 1 12-12 12 12 0 0 1 12 12 12 12 0 0 1-12 12z" fill="none"/>
  <path d="M8 16h16" stroke="#000000" stroke-width="2"/>
  <path d="M16 8v16" stroke="#000000" stroke-width="2"/>
  <path d="M10 10a6 6 0 0 1 12 0" stroke="#000000" stroke-width="2"/>
  <path d="M10 22a6 6 0 0 0 12 0" stroke="#000000" stroke-width="2"/>
</svg>